# xmcd
#
# Track frame offsets: 
#        150
#        21375
#        41875
#        52830
#        75172
#        95079
#        107152
#        130929
#        148297
#        170667
#
# Disc length: 2553 seconds
#
# Revision: 6
# Processed by: cddbd v1.5.2PL0 Copyright (c) Steve Scherf et al.
# Submitted via: ExactAudioCopy v1.1
#
DISCID=8909f70a
DTITLE=劉若英 - 很愛很愛你
DYEAR=1998
DGENRE=Pop
TTITLE0=很愛很愛你
TTITLE1=花季未了
TTITLE2=Flying
TTITLE3=好久好久
TTITLE4=最初的地方
TTITLE5=透明
TTITLE6=你說的對
TTITLE7=夢童
TTITLE8=距離
TTITLE9=多個朋友
EXTD=YEAR: 1998
EXTT0=
EXTT1=
EXTT2=
EXTT3=
EXTT4=
EXTT5=
EXTT6=
EXTT7=
EXTT8=
EXTT9=
PLAYORDER=
